<svg width="589" height="87" viewBox="0 0 589 87" fill="none" xmlns="http://www.w3.org/2000/svg">
<path d="M83.7681 26.4985C81.4362 21.3237 78.3869 16.6843 74.4406 12.7586C70.4944 8.83285 65.8306 5.79935 60.6288 3.47962C55.2475 1.15988 49.6869 0.0892334 43.5881 0.0892334C36.0544 0.0892334 29.0588 1.87365 22.6013 5.44247C20.9869 6.33468 19.7313 7.58376 19.3725 9.36818C18.8344 11.1526 19.0138 12.7586 19.7313 14.3645L19.9106 14.7214C20.8075 16.1489 22.2425 17.0411 23.6775 17.5765C25.2919 18.1118 26.9062 17.9334 28.7 17.0411C33.1844 14.543 38.2069 13.2939 43.4088 13.2939C47.5344 13.2939 51.4806 14.0076 55.0681 15.6136C58.835 17.2196 62.0637 19.3609 64.7544 22.0375C67.445 24.7141 69.7769 27.9261 71.2119 31.6733C72.8262 35.2422 73.5438 39.1679 73.5438 43.272C73.5438 47.3762 72.8262 51.3019 71.2119 55.0491C69.5975 58.7964 67.445 62.0083 64.7544 64.685C62.0637 67.3616 58.835 69.6813 55.0681 71.1088C51.4806 72.7148 47.5344 73.4286 43.4088 73.4286C39.2831 73.4286 35.3369 72.7148 31.57 71.1088C27.8031 69.5029 24.5744 67.3616 21.8838 64.685C19.1931 62.0083 17.0406 58.7964 15.4263 55.0491C13.8119 51.4803 13.0944 47.3762 13.0944 43.272C13.0944 40.7738 13.4531 38.2757 14.1706 35.7775C14.8881 33.2793 15.785 30.9596 17.22 28.4614C17.9375 27.0339 18.1169 25.2494 17.5788 23.6435C17.0406 21.8591 15.9644 20.4315 14.35 19.7178C11.1213 17.9334 7.53375 19.004 5.38125 22.0375V22.5728C3.76688 25.7848 2.33188 29.1751 1.435 32.5655C0.538125 36.1344 0 39.7032 0 43.4504C0 49.5174 1.07625 55.2276 3.40813 60.4024C5.74 65.5772 8.78938 70.2166 12.7356 74.1423C16.6819 78.068 21.3456 81.28 26.5475 83.4213C31.7494 85.741 37.4894 86.8117 43.5881 86.8117C49.5075 86.8117 55.2475 85.741 60.6288 83.4213C65.8306 81.1015 70.4944 78.068 74.4406 74.1423C78.3869 70.2166 81.4362 65.5772 83.7681 60.4024C86.1 55.2276 87.1762 49.5174 87.1762 43.4504C87.1762 37.5619 86.1 31.8518 83.7681 26.4985Z" fill="#3FCA00"/>
<path d="M215.788 17.7551C214.532 19.0042 213.815 20.6102 213.815 22.573V80.388C213.815 82.1724 214.532 83.7784 215.788 85.0274C217.044 86.2765 218.658 86.9903 220.631 86.9903C222.425 86.9903 224.039 86.2765 225.295 85.0274C226.55 83.7784 227.268 82.1724 227.268 80.388V22.573C227.268 20.7886 226.55 19.0042 225.295 17.7551C222.604 15.2569 218.12 15.2569 215.788 17.7551Z" fill="white"/>
<path d="M256.865 2.05209C255.609 0.802998 253.995 0.0892334 252.201 0.0892334H188.882C187.088 0.0892334 185.474 0.802998 184.218 2.05209C182.962 3.30118 182.245 4.90715 182.245 6.69156C182.245 8.47597 182.962 10.2604 184.218 11.5095C185.474 12.7586 187.088 13.4723 188.882 13.4723H252.201C253.995 13.4723 255.609 12.7586 256.865 11.5095C258.121 10.2604 258.838 8.65441 258.838 6.69156C258.659 4.90715 258.121 3.30118 256.865 2.05209Z" fill="white"/>
<path d="M334.355 77.7112L301.171 3.8365C299.915 1.51676 297.763 0.0892334 295.251 0.0892334C292.561 0.0892334 290.229 1.51676 288.973 4.01494L268.883 49.1606L255.968 77.7112L255.789 78.0681C255.251 79.4956 255.251 80.9231 255.789 82.3506C256.327 84.1351 257.583 85.741 259.556 86.4548L259.915 86.6332C260.632 86.8117 261.35 86.9901 262.246 86.9901C264.937 86.9901 267.09 85.5626 268.345 83.0644L279.466 58.4395H297.404C299.198 58.4395 300.991 57.7258 302.247 56.4767C303.503 55.2276 304.22 53.6216 304.22 51.8372C304.22 50.0528 303.503 48.2684 302.247 47.0193C300.991 45.7702 299.377 45.0564 297.404 45.0564H285.206L295.251 22.5728L322.337 83.0644C323.593 85.3841 325.745 86.8117 328.256 86.8117C329.333 86.8117 330.23 86.6332 330.947 86.2763C332.741 85.5626 333.996 84.1351 334.535 82.3506C335.073 80.7447 335.073 78.9603 334.355 77.7112Z" fill="white"/>
<path d="M405.746 2.05209C404.491 0.802998 402.876 0.0892334 401.083 0.0892334H337.763C335.969 0.0892334 334.355 0.802998 333.099 2.05209C331.844 3.30118 331.126 4.90715 331.126 6.69156C331.126 8.47597 331.844 10.2604 333.099 11.5095C334.355 12.7586 335.969 13.4723 337.763 13.4723H401.083C402.876 13.4723 404.491 12.7586 405.746 11.5095C407.002 10.2604 407.719 8.65441 407.719 6.69156C407.54 4.90715 407.002 3.30118 405.746 2.05209Z" fill="white"/>
<path d="M369.333 15.7921C367.539 15.7921 365.746 16.5059 364.49 17.755C363.234 19.0041 362.517 20.61 362.517 22.5729V80.3878C362.517 82.1722 363.234 83.7782 364.49 85.0273C365.746 86.2764 367.36 86.9902 369.333 86.9902C371.127 86.9902 372.741 86.2764 373.997 85.0273C375.253 83.7782 375.97 82.1722 375.97 80.3878V22.5729C375.97 20.7885 375.253 19.0041 373.997 17.755C372.741 16.5059 371.127 15.7921 369.333 15.7921Z" fill="white"/>
<path d="M437.854 73.6067C436.778 73.6067 435.881 73.4282 434.984 73.0713C434.087 72.7145 433.19 72.1791 432.473 71.4654C431.755 70.7516 431.217 70.0378 430.859 68.9672C430.5 68.075 430.32 67.1828 430.32 66.1121V6.6912C430.32 4.90679 429.603 3.30082 428.347 2.05173C425.836 -0.446444 421.531 -0.446444 418.84 2.05173C417.585 3.30082 416.867 4.90679 416.867 6.6912V66.1121C416.867 68.9672 417.405 71.6438 418.482 74.142C419.558 76.6402 420.993 78.9599 422.966 80.7443C424.939 82.7072 427.092 84.1347 429.603 85.2053C432.114 86.276 434.805 86.8113 437.675 86.8113C439.469 86.8113 441.083 86.0975 442.339 84.8484C443.594 83.5994 444.312 81.9934 444.312 80.209C444.312 78.4246 443.594 76.6402 442.339 75.3911C441.262 74.3204 439.648 73.6067 437.854 73.6067Z" fill="white"/>
<path d="M477.137 2.05221C475.882 0.80312 474.267 0.0893555 472.474 0.0893555C470.5 0.0893555 468.886 0.80312 467.63 2.23065C466.554 3.47974 466.016 5.08571 466.016 6.69168V66.1126C466.016 67.1833 465.837 68.0755 465.478 68.9677C465.119 69.8599 464.581 70.7521 463.864 71.2874C463.146 72.0012 462.249 72.5365 461.352 73.0718C460.455 73.4287 459.559 73.6071 458.482 73.6071C456.689 73.6071 455.074 74.3209 453.819 75.57C452.563 76.8191 451.845 78.4251 451.845 80.3879C451.845 82.1723 452.563 83.7783 453.819 85.0274C455.074 86.2765 456.689 86.9902 458.482 86.9902C461.352 86.9902 464.043 86.4549 466.554 85.3843C469.065 84.3136 471.397 82.8861 473.191 80.9232C475.164 78.9604 476.599 76.8191 477.675 74.3209C478.752 71.8227 479.29 69.1461 479.29 66.291V6.69168C479.11 4.90727 478.572 3.3013 477.137 2.05221Z" fill="white"/>
<path d="M588.529 80.3875C588.529 83.5994 586.018 86.0976 582.789 86.0976C579.561 86.0976 577.049 83.5994 577.049 80.3875C577.049 77.354 579.561 74.8558 582.789 74.8558C586.018 74.6774 588.529 77.1755 588.529 80.3875ZM578.484 80.3875C578.484 82.8856 580.278 84.8485 582.789 84.8485C585.301 84.8485 587.094 82.8856 587.094 80.3875C587.094 77.8893 585.301 75.9264 582.789 75.9264C580.278 75.9264 578.484 77.8893 578.484 80.3875ZM581.892 83.2425H580.637V77.7109C581.175 77.5324 581.892 77.5324 582.789 77.5324C583.866 77.5324 584.404 77.7109 584.762 77.8893C585.121 78.0677 585.301 78.6031 585.301 79.1384C585.301 79.6737 584.762 80.209 584.224 80.3875C584.762 80.5659 585.121 80.9228 585.301 81.815C585.48 82.7072 585.659 83.0641 585.659 83.2425H584.224C584.045 83.0641 583.866 82.5288 583.866 81.815C583.686 81.2797 583.507 80.9228 582.789 80.9228H582.251V83.2425H581.892ZM581.892 80.0306H582.431C583.148 80.0306 583.686 79.8521 583.686 79.1384C583.686 78.6031 583.327 78.2462 582.431 78.2462C582.072 78.2462 581.892 78.2462 581.713 78.2462V80.0306H581.892Z" fill="white"/>
<path d="M568.439 2.05207C566.287 -0.0892208 562.52 -0.624544 559.471 1.51675L531.667 30.4242L504.402 1.87363C501.891 -0.624544 497.407 -0.624544 494.895 1.87363C493.64 3.12272 492.922 4.72869 492.922 6.5131C492.922 8.29752 493.64 9.90349 494.716 10.9741L501.353 17.9333L506.017 22.9297L507.093 24.1788L507.452 24.5357L526.466 44.5211C527.721 45.9486 529.515 46.6624 531.488 46.6624C533.282 46.6624 535.076 45.9486 536.331 44.6995L556.78 23.2866V80.3878C556.78 82.1722 557.497 83.7781 558.753 85.0272C560.009 86.2763 561.623 86.9901 563.417 86.9901C565.211 86.9901 567.004 86.2763 568.26 85.0272C569.515 83.7781 570.233 82.1722 570.233 80.3878V6.69155C570.412 5.08557 569.695 3.4796 568.439 2.05207Z" fill="white"/>
<path d="M506.199 31.6733C506.02 30.4242 505.482 29.1752 504.405 28.2829C503.15 27.2123 501.535 26.4985 499.742 26.4985C497.948 26.4985 496.154 27.0339 494.898 28.2829C493.822 29.1752 493.284 30.4242 493.105 31.6733V32.2087V37.5619V41.8445V71.4657V80.9231C493.105 82.5291 493.822 83.9566 495.078 85.0273C496.333 86.0979 497.948 86.8117 499.742 86.8117C501.535 86.8117 503.329 86.2763 504.585 85.0273C505.84 83.9566 506.558 82.5291 506.558 80.9231V71.4657V41.8445V37.5619V32.3871L506.199 31.6733Z" fill="white"/>
<path d="M120.719 19.3607C122.513 19.7176 124.307 19.3607 125.742 18.2901C130.764 14.8997 136.325 13.1153 142.603 13.1153C149.599 13.1153 155.877 15.2566 161.437 19.5392C162.334 20.2529 163.59 21.1451 165.742 21.1451C167.895 21.1451 169.689 20.2529 170.944 18.4685C172.021 17.041 172.559 15.435 172.379 13.6506C172.2 12.2231 171.482 10.7956 170.227 9.54647L169.868 9.18959C165.922 6.15609 161.617 3.83635 157.132 2.23038C148.522 -0.446239 138.836 -0.62468 129.867 1.8735C125.742 3.12259 121.796 4.907 118.208 7.40517C116.773 8.29738 115.697 9.90335 115.338 11.5093C114.979 13.4722 115.338 15.2566 116.594 16.6841C117.67 18.1116 118.926 19.0039 120.719 19.3607Z" fill="white"/>
<path d="M170.944 67.897C169.868 66.4695 168.433 65.5773 166.639 65.3988C164.846 65.042 163.052 65.5773 161.438 66.8264C160.72 67.3617 159.823 68.0755 159.106 68.6108C155.877 70.7521 152.469 72.1796 148.881 72.8934C145.114 73.7856 141.168 73.7856 137.222 73.0718C133.276 72.358 129.509 70.9305 126.101 68.7892C124.307 67.7186 122.693 66.291 121.078 64.8635C120.54 64.3282 120.002 63.7929 119.643 63.2575C117.491 60.9378 115.876 58.2612 114.621 55.2277C113.006 51.6589 112.289 47.7332 112.289 43.629C112.289 41.4877 112.468 39.3464 112.827 37.3836C113.186 35.4207 113.903 33.4579 114.621 31.495C116.235 27.9262 114.8 24.3574 111.213 22.7514C107.625 21.1454 104.038 22.7514 102.423 26.3202C100.091 32.0303 98.8357 37.7404 98.8357 43.629C98.8357 49.696 99.9119 55.4061 102.244 60.5809C104.576 65.7557 107.625 70.3952 111.571 74.3209C115.518 78.2466 120.181 81.4585 125.383 83.5998C130.406 85.7411 135.966 86.9902 141.886 86.9902C141.886 86.9902 149.778 87.3471 158.209 83.7783C158.747 83.5998 159.285 83.4214 159.823 83.0645C160.003 83.0645 160.182 82.8861 160.182 82.8861C162.514 81.8154 164.666 80.5663 166.819 79.3173C167.357 78.9604 167.895 78.425 168.433 78.0682C168.792 77.7113 169.33 77.5328 169.689 77.176C171.124 75.9269 172.021 74.3209 172.2 72.5365C172.559 70.7521 172.021 69.1461 170.944 67.897Z" fill="white"/>
</svg>
