<svg width="44" height="17" viewBox="0 0 44 17" fill="none" xmlns="http://www.w3.org/2000/svg">
<path d="M32.7027 9.89998H1.14345C0.514553 9.89998 0 9.15748 0 8.24998C0 7.34248 0.514553 6.59998 1.14345 6.59998H32.7027C33.3316 6.59998 33.8462 7.34248 33.8462 8.24998C33.8462 9.15748 33.3316 9.89998 32.7027 9.89998Z" fill="black"/>
<path d="M42.5135 3.3H1.48649C0.668919 3.3 0 2.5575 0 1.65C0 0.7425 0.668919 0 1.48649 0H42.5135C43.3311 0 44 0.7425 44 1.65C44 2.5575 43.3311 3.3 42.5135 3.3Z" fill="black"/>
<path d="M42.5135 16.5001H1.48649C0.668919 16.5001 0 15.7576 0 14.8501C0 13.9426 0.668919 13.2001 1.48649 13.2001H42.5135C43.3311 13.2001 44 13.9426 44 14.8501C44 15.7576 43.3311 16.5001 42.5135 16.5001Z" fill="black"/>
</svg>
