<svg width="115" height="17" viewBox="0 0 115 17" fill="none" xmlns="http://www.w3.org/2000/svg">
<path d="M16.3685 5.17789C15.9128 4.16673 15.317 3.26016 14.5459 2.49307C13.7748 1.72598 12.8635 1.13323 11.847 0.679945C10.7955 0.226663 9.70893 0.0174561 8.51722 0.0174561C7.04511 0.0174561 5.67815 0.366134 4.41634 1.06349C4.10088 1.23783 3.85553 1.4819 3.78543 1.83058C3.68028 2.17926 3.71533 2.49307 3.85553 2.80688L3.89058 2.87662C4.06583 3.15556 4.34624 3.3299 4.62664 3.4345C4.94209 3.53911 5.25754 3.50424 5.60805 3.3299C6.4843 2.84175 7.46571 2.59767 8.48217 2.59767C9.28833 2.59767 10.0594 2.73715 10.7604 3.05096C11.4965 3.36477 12.1274 3.78318 12.6532 4.3062C13.1789 4.82922 13.6346 5.45684 13.915 6.18906C14.2304 6.88642 14.3706 7.65351 14.3706 8.45547C14.3706 9.25743 14.2304 10.0245 13.915 10.7567C13.5995 11.489 13.1789 12.1166 12.6532 12.6396C12.1274 13.1626 11.4965 13.6159 10.7604 13.8948C10.0594 14.2087 9.28833 14.3481 8.48217 14.3481C7.67601 14.3481 6.90491 14.2087 6.16885 13.8948C5.4328 13.581 4.80189 13.1626 4.27613 12.6396C3.75038 12.1166 3.32978 11.489 3.01432 10.7567C2.69887 10.0594 2.55867 9.25743 2.55867 8.45547C2.55867 7.96732 2.62877 7.47917 2.76897 6.99102C2.90917 6.50287 3.08443 6.04959 3.36483 5.56144C3.50503 5.2825 3.54008 4.93382 3.43493 4.62001C3.32978 4.27133 3.11948 3.99239 2.80402 3.85292C2.17312 3.50424 1.47211 3.71345 1.05151 4.3062V4.4108C0.736056 5.03842 0.455654 5.70091 0.280402 6.3634C0.105151 7.06076 0 7.75811 0 8.49034C0 9.67584 0.210302 10.7916 0.665955 11.8028C1.12161 12.8139 1.71746 13.7205 2.48857 14.4876C3.25968 15.2547 4.17098 15.8823 5.18744 16.3007C6.2039 16.754 7.32551 16.9632 8.51722 16.9632C9.67388 16.9632 10.7955 16.754 11.847 16.3007C12.8635 15.8474 13.7748 15.2547 14.5459 14.4876C15.317 13.7205 15.9128 12.8139 16.3685 11.8028C16.8241 10.7916 17.0344 9.67584 17.0344 8.49034C17.0344 7.3397 16.8241 6.22393 16.3685 5.17789Z" fill="#111"/>
<path d="M42.1656 3.46938C41.9202 3.71346 41.78 4.02727 41.78 4.41082V15.708C41.78 16.0567 41.9202 16.3705 42.1656 16.6146C42.4109 16.8586 42.7264 16.9981 43.1119 16.9981C43.4624 16.9981 43.7779 16.8586 44.0232 16.6146C44.2686 16.3705 44.4088 16.0567 44.4088 15.708V4.41082C44.4088 4.06214 44.2686 3.71346 44.0232 3.46938C43.4975 2.98123 42.6212 2.98123 42.1656 3.46938Z" fill="#111"/>
<path d="M50.192 0.401002C49.9467 0.156927 49.6312 0.0174561 49.2807 0.0174561H36.9079C36.5574 0.0174561 36.242 0.156927 35.9966 0.401002C35.7513 0.645077 35.6111 0.958887 35.6111 1.30757C35.6111 1.65624 35.7513 2.00492 35.9966 2.249C36.242 2.49307 36.5574 2.63254 36.9079 2.63254H49.2807C49.6312 2.63254 49.9467 2.49307 50.192 2.249C50.4374 2.00492 50.5776 1.69111 50.5776 1.30757C50.5425 0.958887 50.4374 0.645077 50.192 0.401002Z" fill="#111"/>
<path d="M65.3337 15.185L58.8494 0.74968C58.6041 0.296399 58.1835 0.0174561 57.6928 0.0174561C57.167 0.0174561 56.7114 0.296399 56.466 0.784548L52.5404 9.60611L50.0167 15.185L49.9817 15.2547C49.8765 15.5336 49.8765 15.8126 49.9817 16.0915C50.0868 16.4402 50.3322 16.754 50.7177 16.8935L50.7878 16.9284C50.928 16.9632 51.0683 16.9981 51.2435 16.9981C51.7693 16.9981 52.1899 16.7191 52.4352 16.231L54.6083 11.4192H58.1134C58.4639 11.4192 58.8144 11.2798 59.0597 11.0357C59.3051 10.7916 59.4453 10.4778 59.4453 10.1291C59.4453 9.78045 59.3051 9.43177 59.0597 9.18769C58.8144 8.94362 58.4989 8.80415 58.1134 8.80415H55.7299L57.6928 4.4108L62.9853 16.231C63.2307 16.6843 63.6513 16.9632 64.142 16.9632C64.3523 16.9632 64.5276 16.9284 64.6678 16.8586C65.0183 16.7191 65.2636 16.4402 65.3688 16.0915C65.4739 15.7777 65.4739 15.429 65.3337 15.185Z" fill="#111"/>
<path d="M79.2838 0.401002C79.0384 0.156927 78.723 0.0174561 78.3725 0.0174561H65.9997C65.6492 0.0174561 65.3338 0.156927 65.0884 0.401002C64.8431 0.645077 64.7029 0.958887 64.7029 1.30757C64.7029 1.65624 64.8431 2.00492 65.0884 2.249C65.3338 2.49307 65.6492 2.63254 65.9997 2.63254H78.3725C78.723 2.63254 79.0384 2.49307 79.2838 2.249C79.5292 2.00492 79.6694 1.69111 79.6694 1.30757C79.6343 0.958887 79.5292 0.645077 79.2838 0.401002Z" fill="#111"/>
<path d="M72.1686 3.08582C71.8181 3.08582 71.4676 3.22529 71.2222 3.46936C70.9769 3.71344 70.8367 4.02725 70.8367 4.41079V15.708C70.8367 16.0566 70.9769 16.3705 71.2222 16.6145C71.4676 16.8586 71.783 16.9981 72.1686 16.9981C72.5191 16.9981 72.8345 16.8586 73.0799 16.6145C73.3252 16.3705 73.4654 16.0566 73.4654 15.708V4.41079C73.4654 4.06211 73.3252 3.71344 73.0799 3.46936C72.8345 3.22529 72.5191 3.08582 72.1686 3.08582Z" fill="#111"/>
<path d="M85.5577 14.3829C85.3474 14.3829 85.1721 14.348 84.9969 14.2783C84.8216 14.2086 84.6464 14.104 84.5062 13.9645C84.366 13.825 84.2608 13.6855 84.1907 13.4763C84.1206 13.302 84.0856 13.1277 84.0856 12.9185V1.30747C84.0856 0.958787 83.9454 0.644977 83.7 0.400902C83.2093 -0.0872473 82.3681 -0.0872473 81.8423 0.400902C81.597 0.644977 81.4568 0.958787 81.4568 1.30747V12.9185C81.4568 13.4763 81.5619 13.9994 81.7722 14.4875C81.9825 14.9757 82.2629 15.4289 82.6485 15.7776C83.0341 16.1612 83.4547 16.4401 83.9454 16.6493C84.4361 16.8585 84.9618 16.9631 85.5226 16.9631C85.8731 16.9631 86.1886 16.8236 86.4339 16.5796C86.6793 16.3355 86.8195 16.0217 86.8195 15.673C86.8195 15.3243 86.6793 14.9757 86.4339 14.7316C86.2236 14.5224 85.9082 14.3829 85.5577 14.3829Z" fill="#111"/>
<path d="M93.2336 0.401002C92.9882 0.156927 92.6728 0.0174561 92.3223 0.0174561C91.9367 0.0174561 91.6213 0.156927 91.3759 0.43587C91.1656 0.679945 91.0605 0.993755 91.0605 1.30757V12.9186C91.0605 13.1278 91.0254 13.3021 90.9553 13.4764C90.8852 13.6508 90.7801 13.8251 90.6399 13.9297C90.4997 14.0692 90.3244 14.1738 90.1492 14.2784C89.9739 14.3481 89.7987 14.383 89.5884 14.383C89.2379 14.383 88.9224 14.5225 88.6771 14.7665C88.4317 15.0106 88.2915 15.3244 88.2915 15.708C88.2915 16.0567 88.4317 16.3705 88.6771 16.6145C88.9224 16.8586 89.2379 16.9981 89.5884 16.9981C90.1492 16.9981 90.6749 16.8935 91.1656 16.6843C91.6563 16.4751 92.112 16.1961 92.4625 15.8126C92.848 15.429 93.1284 15.0106 93.3387 14.5225C93.549 14.0343 93.6542 13.5113 93.6542 12.9534V1.30757C93.6192 0.958887 93.514 0.645077 93.2336 0.401002Z" fill="#111"/>
<path d="M115 15.7079C115 16.3355 114.509 16.8237 113.878 16.8237C113.248 16.8237 112.757 16.3355 112.757 15.7079C112.757 15.1152 113.248 14.627 113.878 14.627C114.509 14.5921 115 15.0803 115 15.7079ZM113.037 15.7079C113.037 16.1961 113.388 16.5796 113.878 16.5796C114.369 16.5796 114.72 16.1961 114.72 15.7079C114.72 15.2198 114.369 14.8362 113.878 14.8362C113.388 14.8362 113.037 15.2198 113.037 15.7079ZM113.703 16.2658H113.458V15.1849C113.563 15.15 113.703 15.15 113.878 15.15C114.089 15.15 114.194 15.1849 114.264 15.2198C114.334 15.2546 114.369 15.3592 114.369 15.4638C114.369 15.5684 114.264 15.673 114.159 15.7079C114.264 15.7428 114.334 15.8125 114.369 15.9868C114.404 16.1612 114.439 16.2309 114.439 16.2658H114.159C114.124 16.2309 114.089 16.1263 114.089 15.9868C114.054 15.8822 114.019 15.8125 113.878 15.8125H113.773V16.2658H113.703ZM113.703 15.6382H113.808C113.949 15.6382 114.054 15.6033 114.054 15.4638C114.054 15.3592 113.984 15.2895 113.808 15.2895C113.738 15.2895 113.703 15.2895 113.668 15.2895V15.6382H113.703Z" fill="#111"/>
<path d="M111.074 0.40098C110.654 -0.0174339 109.918 -0.122037 109.322 0.296377L103.889 5.94496L98.5613 0.366112C98.0706 -0.122037 97.1944 -0.122037 96.7037 0.366112C96.4583 0.610187 96.3181 0.923997 96.3181 1.27268C96.3181 1.62135 96.4583 1.93516 96.6686 2.14437L97.9655 3.50422L98.8768 4.48052L99.0871 4.72459L99.1572 4.79433L102.873 8.69952C103.118 8.97846 103.468 9.11794 103.854 9.11794C104.204 9.11794 104.555 8.97846 104.8 8.73439L108.796 4.55025V15.708C108.796 16.0566 108.936 16.3704 109.182 16.6145C109.427 16.8586 109.742 16.9981 110.093 16.9981C110.443 16.9981 110.794 16.8586 111.039 16.6145C111.285 16.3704 111.425 16.0566 111.425 15.708V1.30754C111.46 0.993733 111.32 0.679923 111.074 0.40098Z" fill="#111"/>
<path d="M98.9124 6.18902C98.8774 5.94495 98.7722 5.70087 98.5619 5.52653C98.3166 5.31733 98.0011 5.17786 97.6506 5.17786C97.3001 5.17786 96.9496 5.28246 96.7043 5.52653C96.494 5.70087 96.3888 5.94495 96.3538 6.18902V6.29363V7.33966V8.17649V13.9645V15.8125C96.3538 16.1264 96.494 16.4053 96.7393 16.6145C96.9847 16.8237 97.3001 16.9632 97.6506 16.9632C98.0011 16.9632 98.3516 16.8586 98.597 16.6145C98.8423 16.4053 98.9825 16.1264 98.9825 15.8125V13.9645V8.17649V7.33966V6.32849L98.9124 6.18902Z" fill="#111"/>
<path d="M23.5887 3.78313C23.9393 3.85287 24.2898 3.78313 24.5702 3.57393C25.5516 2.91144 26.6381 2.56276 27.8649 2.56276C29.2318 2.56276 30.4586 2.98117 31.5452 3.818C31.7204 3.95747 31.9658 4.13181 32.3864 4.13181C32.807 4.13181 33.1575 3.95747 33.4028 3.60879C33.6131 3.32985 33.7183 3.01604 33.6832 2.66736C33.6482 2.38842 33.508 2.10948 33.2626 1.8654L33.1925 1.79567C32.4214 1.20291 31.5802 0.749632 30.704 0.435821C29.0215 -0.0871961 27.1288 -0.122064 25.3763 0.366086C24.5702 0.61016 23.799 0.958839 23.098 1.44699C22.8176 1.62133 22.6073 1.93514 22.5372 2.24895C22.4671 2.63249 22.5372 2.98117 22.7826 3.26012C22.9929 3.53906 23.2382 3.7134 23.5887 3.78313Z" fill="#111"/>
<path d="M33.403 13.2672C33.1927 12.9883 32.9123 12.8139 32.5618 12.7791C32.2113 12.7093 31.8607 12.8139 31.5453 13.058C31.4051 13.1626 31.2298 13.3021 31.0896 13.4067C30.4587 13.8251 29.7928 14.104 29.0918 14.2435C28.3557 14.4179 27.5846 14.4179 26.8135 14.2784C26.0424 14.1389 25.3063 13.86 24.6404 13.4416C24.2899 13.2323 23.9744 12.9534 23.659 12.6745C23.5538 12.5699 23.4487 12.4653 23.3786 12.3607C22.958 11.9074 22.6425 11.3844 22.3972 10.7916C22.0817 10.0942 21.9415 9.32715 21.9415 8.52519C21.9415 8.10678 21.9766 7.68836 22.0467 7.30482C22.1168 6.92127 22.257 6.53772 22.3972 6.15418C22.7126 5.45682 22.4322 4.75946 21.7312 4.44565C21.0302 4.13184 20.3292 4.44565 20.0137 5.14301C19.5581 6.25878 19.3127 7.37455 19.3127 8.52519C19.3127 9.71069 19.523 10.8265 19.9787 11.8376C20.4344 12.8488 21.0302 13.7554 21.8013 14.5225C22.5724 15.2895 23.4837 15.9172 24.5002 16.3356C25.4816 16.754 26.5682 16.9981 27.7248 16.9981C27.7248 16.9981 29.267 17.0678 30.9144 16.3705C31.0195 16.3356 31.1247 16.3007 31.2298 16.231C31.2649 16.231 31.2999 16.1961 31.2999 16.1961C31.7556 15.9869 32.1762 15.7428 32.5968 15.4988C32.702 15.429 32.8071 15.3244 32.9123 15.2547C32.9824 15.1849 33.0875 15.1501 33.1576 15.0803C33.438 14.8363 33.6133 14.5225 33.6483 14.1738C33.7184 13.8251 33.6133 13.5113 33.403 13.2672Z" fill="#111"/>
</svg>
