<svg width="196" height="29" viewBox="0 0 196 29" fill="none" xmlns="http://www.w3.org/2000/svg">
<path d="M27.8976 8.83288C27.121 7.10795 26.1055 5.56146 24.7912 4.25289C23.477 2.94432 21.9238 1.93316 20.1914 1.15991C18.3993 0.386668 16.5474 0.0297852 14.5163 0.0297852C12.0073 0.0297852 9.67754 0.624589 7.52697 1.8142C6.98933 2.1116 6.57117 2.52796 6.45169 3.12277C6.27248 3.71757 6.33222 4.25289 6.57117 4.78822L6.63091 4.90718C6.92959 5.38302 7.4075 5.68042 7.8854 5.85886C8.42304 6.03731 8.96068 5.97783 9.55806 5.68042C11.0515 4.8477 12.7242 4.43133 14.4566 4.43133C15.8305 4.43133 17.1448 4.66926 18.3395 5.20458C19.594 5.7399 20.6693 6.45367 21.5654 7.34588C22.4614 8.23808 23.238 9.30873 23.7159 10.5578C24.2536 11.7474 24.4925 13.056 24.4925 14.424C24.4925 15.7921 24.2536 17.1007 23.7159 18.3497C23.1783 19.5988 22.4614 20.6695 21.5654 21.5617C20.6693 22.4539 19.594 23.2271 18.3395 23.703C17.1448 24.2383 15.8305 24.4762 14.4566 24.4762C13.0826 24.4762 11.7684 24.2383 10.5139 23.703C9.25937 23.1677 8.18409 22.4539 7.28802 21.5617C6.39195 20.6695 5.6751 19.5988 5.13746 18.3497C4.59982 17.1601 4.36087 15.7921 4.36087 14.424C4.36087 13.5913 4.48034 12.7586 4.71929 11.9259C4.95824 11.0931 5.25693 10.3199 5.73484 9.48717C5.97379 9.01133 6.03353 8.41652 5.85431 7.8812C5.6751 7.28639 5.31667 6.81055 4.77903 6.57263C3.70375 5.97783 2.50899 6.33471 1.79214 7.34588V7.52432C1.2545 8.59496 0.776592 9.72509 0.477903 10.8552C0.179214 12.0448 0 13.2344 0 14.4835C0 16.5059 0.358427 18.4092 1.13502 20.1342C1.91161 21.8591 2.92716 23.4056 4.24139 24.7142C5.55562 26.0227 7.10881 27.0934 8.84121 27.8071C10.5736 28.5804 12.4852 28.9373 14.5163 28.9373C16.4877 28.9373 18.3993 28.5804 20.1914 27.8071C21.9238 27.0339 23.477 26.0227 24.7912 24.7142C26.1055 23.4056 27.121 21.8591 27.8976 20.1342C28.6742 18.4092 29.0326 16.5059 29.0326 14.4835C29.0326 12.5207 28.6742 10.6173 27.8976 8.83288Z" fill="white"/>
<path d="M71.8648 5.91837C71.4466 6.33473 71.2076 6.87005 71.2076 7.52434V26.796C71.2076 27.3908 71.4466 27.9261 71.8648 28.3425C72.2829 28.7588 72.8206 28.9968 73.4777 28.9968C74.0751 28.9968 74.6127 28.7588 75.0309 28.3425C75.449 27.9261 75.688 27.3908 75.688 26.796V7.52434C75.688 6.92953 75.449 6.33473 75.0309 5.91837C74.1348 5.08564 72.6414 5.08564 71.8648 5.91837Z" fill="white"/>
<path d="M85.5447 0.68407C85.1265 0.267707 84.5889 0.0297852 83.9915 0.0297852H62.904C62.3067 0.0297852 61.769 0.267707 61.3508 0.68407C60.9327 1.10043 60.6937 1.63576 60.6937 2.23056C60.6937 2.82536 60.9327 3.42017 61.3508 3.83653C61.769 4.25289 62.3067 4.49082 62.904 4.49082H83.9915C84.5889 4.49082 85.1265 4.25289 85.5447 3.83653C85.9629 3.42017 86.2018 2.88484 86.2018 2.23056C86.1421 1.63576 85.9629 1.10043 85.5447 0.68407Z" fill="white"/>
<path d="M111.351 25.9038L100.3 1.27887C99.8817 0.505628 99.1648 0.0297852 98.3285 0.0297852C97.4324 0.0297852 96.6558 0.505628 96.2377 1.33835L89.547 16.3869L85.2459 25.9038L85.1862 26.0227C85.007 26.4986 85.007 26.9744 85.1862 27.4503C85.3654 28.0451 85.7835 28.5804 86.4407 28.8183L86.5601 28.8778C86.7991 28.9373 87.038 28.9967 87.3367 28.9967C88.2328 28.9967 88.9497 28.5209 89.3678 27.6882L93.0716 19.4799H99.0454C99.6427 19.4799 100.24 19.242 100.658 18.8256C101.076 18.4092 101.315 17.8739 101.315 17.2791C101.315 16.6843 101.076 16.0895 100.658 15.6731C100.24 15.2568 99.7025 15.0188 99.0454 15.0188H94.9832L98.3285 7.52432L107.349 27.6882C107.767 28.4614 108.484 28.9373 109.32 28.9373C109.679 28.9373 109.977 28.8778 110.216 28.7588C110.814 28.5209 111.232 28.0451 111.411 27.4503C111.59 26.9149 111.59 26.3201 111.351 25.9038Z" fill="white"/>
<path d="M135.127 0.68407C134.709 0.267707 134.171 0.0297852 133.574 0.0297852H112.486C111.889 0.0297852 111.351 0.267707 110.933 0.68407C110.515 1.10043 110.276 1.63576 110.276 2.23056C110.276 2.82536 110.515 3.42017 110.933 3.83653C111.351 4.25289 111.889 4.49082 112.486 4.49082H133.574C134.171 4.49082 134.709 4.25289 135.127 3.83653C135.545 3.42017 135.784 2.88484 135.784 2.23056C135.724 1.63576 135.545 1.10043 135.127 0.68407Z" fill="white"/>
<path d="M123 5.26404C122.403 5.26404 121.806 5.50196 121.387 5.91832C120.969 6.33468 120.73 6.87001 120.73 7.52429V26.7959C120.73 27.3907 120.969 27.9261 121.387 28.3424C121.806 28.7588 122.343 28.9967 123 28.9967C123.598 28.9967 124.135 28.7588 124.553 28.3424C124.972 27.9261 125.211 27.3907 125.211 26.7959V7.52429C125.211 6.92949 124.972 6.33468 124.553 5.91832C124.135 5.50196 123.598 5.26404 123 5.26404Z" fill="white"/>
<path d="M145.82 24.5358C145.462 24.5358 145.163 24.4763 144.864 24.3573C144.566 24.2384 144.267 24.0599 144.028 23.822C143.789 23.5841 143.61 23.3461 143.49 22.9893C143.371 22.6919 143.311 22.3945 143.311 22.0376V2.23061C143.311 1.6358 143.072 1.10048 142.654 0.684115C141.818 -0.148611 140.384 -0.148611 139.488 0.684115C139.07 1.10048 138.831 1.6358 138.831 2.23061V22.0376C138.831 22.9893 139.01 23.8815 139.368 24.7142C139.727 25.5469 140.205 26.3202 140.862 26.915C141.519 27.5693 142.236 28.0451 143.072 28.402C143.909 28.7589 144.805 28.9373 145.76 28.9373C146.358 28.9373 146.895 28.6994 147.314 28.283C147.732 27.8667 147.971 27.3313 147.971 26.7365C147.971 26.1417 147.732 25.5469 147.314 25.1306C146.955 24.7737 146.418 24.5358 145.82 24.5358Z" fill="white"/>
<path d="M158.903 0.68407C158.485 0.267707 157.947 0.0297852 157.35 0.0297852C156.692 0.0297852 156.155 0.267707 155.737 0.74355C155.378 1.15991 155.199 1.69524 155.199 2.23056V22.0375C155.199 22.3944 155.139 22.6918 155.02 22.9892C154.9 23.2866 154.721 23.584 154.482 23.7625C154.243 24.0004 153.945 24.1788 153.646 24.3573C153.347 24.4762 153.048 24.5357 152.69 24.5357C152.093 24.5357 151.555 24.7736 151.137 25.19C150.719 25.6064 150.48 26.1417 150.48 26.796C150.48 27.3908 150.719 27.9261 151.137 28.3425C151.555 28.7588 152.093 28.9967 152.69 28.9967C153.646 28.9967 154.542 28.8183 155.378 28.4614C156.215 28.1045 156.991 27.6287 157.589 26.9744C158.246 26.3201 158.724 25.6064 159.082 24.7736C159.44 23.9409 159.62 23.0487 159.62 22.097V2.23056C159.56 1.63576 159.381 1.10043 158.903 0.68407Z" fill="white"/>
<path d="M196 26.7959C196 27.8665 195.164 28.6992 194.088 28.6992C193.013 28.6992 192.177 27.8665 192.177 26.7959C192.177 25.7847 193.013 24.952 194.088 24.952C195.164 24.8925 196 25.7252 196 26.7959ZM192.655 26.7959C192.655 27.6286 193.252 28.2829 194.088 28.2829C194.925 28.2829 195.522 27.6286 195.522 26.7959C195.522 25.9631 194.925 25.3089 194.088 25.3089C193.252 25.3089 192.655 25.9631 192.655 26.7959ZM193.79 27.7476H193.372V25.9037C193.551 25.8442 193.79 25.8442 194.088 25.8442C194.447 25.8442 194.626 25.9037 194.745 25.9631C194.865 26.0226 194.925 26.2011 194.925 26.3795C194.925 26.5579 194.745 26.7364 194.566 26.7959C194.745 26.8553 194.865 26.9743 194.925 27.2717C194.984 27.5691 195.044 27.6881 195.044 27.7476H194.566C194.507 27.6881 194.447 27.5096 194.447 27.2717C194.387 27.0933 194.327 26.9743 194.088 26.9743H193.909V27.7476H193.79ZM193.79 26.6769H193.969C194.208 26.6769 194.387 26.6174 194.387 26.3795C194.387 26.2011 194.268 26.0821 193.969 26.0821C193.849 26.0821 193.79 26.0821 193.73 26.0821V26.6769H193.79Z" fill="white"/>
<path d="M189.309 0.684025C188.592 -0.0297402 187.338 -0.208181 186.322 0.505583L177.063 10.1414L167.983 0.624544C167.147 -0.208181 165.653 -0.208181 164.817 0.624544C164.399 1.04091 164.16 1.57623 164.16 2.17103C164.16 2.76584 164.399 3.30116 164.757 3.65805L166.967 5.97778L168.521 7.64323L168.879 8.0596L168.998 8.17856L175.331 14.8404C175.749 15.3162 176.346 15.5541 177.003 15.5541C177.601 15.5541 178.198 15.3162 178.616 14.8998L185.426 7.76219V26.7959C185.426 27.3907 185.665 27.926 186.083 28.3424C186.502 28.7588 187.039 28.9967 187.637 28.9967C188.234 28.9967 188.831 28.7588 189.25 28.3424C189.668 27.926 189.907 27.3907 189.907 26.7959V2.23052C189.966 1.69519 189.727 1.15987 189.309 0.684025Z" fill="white"/>
<path d="M168.58 10.5578C168.52 10.1415 168.341 9.72509 167.983 9.42769C167.565 9.07081 167.027 8.83289 166.43 8.83289C165.832 8.83289 165.235 9.01133 164.817 9.42769C164.458 9.72509 164.279 10.1415 164.219 10.5578V10.7363V12.5207V13.9482V23.8219V26.9744C164.219 27.5097 164.458 27.9856 164.876 28.3425C165.295 28.6993 165.832 28.9373 166.43 28.9373C167.027 28.9373 167.624 28.7588 168.043 28.3425C168.461 27.9856 168.7 27.5097 168.7 26.9744V23.8219V13.9482V12.5207V10.7957L168.58 10.5578Z" fill="white"/>
<path d="M40.2036 6.45358C40.801 6.57254 41.3984 6.45358 41.8763 6.0967C43.5489 4.96657 45.4008 4.37176 47.4916 4.37176C49.8214 4.37176 51.9122 5.08553 53.7641 6.51306C54.0628 6.75098 54.481 7.04838 55.1978 7.04838C55.9147 7.04838 56.512 6.75098 56.9302 6.15618C57.2886 5.68033 57.4678 5.14501 57.4081 4.55021C57.3484 4.07436 57.1094 3.59852 56.6913 3.18216L56.5718 3.0632C55.2575 2.05203 53.8238 1.27878 52.3304 0.74346C49.463 -0.148746 46.2371 -0.208227 43.2502 0.624499C41.8763 1.04086 40.562 1.63567 39.3673 2.46839C38.8894 2.76579 38.5309 3.30112 38.4115 3.83644C38.292 4.49073 38.4115 5.08553 38.8296 5.56137C39.1881 6.03722 39.6062 6.33462 40.2036 6.45358Z" fill="white"/>
<path d="M56.9302 22.6323C56.5717 22.1565 56.0938 21.8591 55.4965 21.7996C54.8991 21.6806 54.3017 21.8591 53.764 22.2754C53.5251 22.4539 53.2264 22.6918 52.9875 22.8702C51.9122 23.584 50.7772 24.0598 49.5824 24.2977C48.3279 24.5951 47.0137 24.5952 45.6994 24.3572C44.3852 24.1193 43.1307 23.6435 41.9957 22.9297C41.3983 22.5728 40.8607 22.097 40.323 21.6211C40.1438 21.4427 39.9646 21.2642 39.8451 21.0858C39.1283 20.3126 38.5906 19.4204 38.1725 18.4092C37.6348 17.2196 37.3959 15.911 37.3959 14.543C37.3959 13.8292 37.4556 13.1154 37.5751 12.4611C37.6946 11.8069 37.9335 11.1526 38.1725 10.4983C38.7101 9.30869 38.2322 8.11908 37.0374 7.58376C35.8427 7.04843 34.6479 7.58376 34.1103 8.77336C33.3337 10.6767 32.9155 12.5801 32.9155 14.543C32.9155 16.5653 33.274 18.4687 34.0505 20.1936C34.8271 21.9185 35.8427 23.465 37.1569 24.7736C38.4712 26.0822 40.0243 27.1528 41.7567 27.8666C43.4294 28.5803 45.2813 28.9967 47.2526 28.9967C47.2526 28.9967 49.8811 29.1157 52.6888 27.9261C52.868 27.8666 53.0472 27.8071 53.2264 27.6881C53.2861 27.6881 53.3459 27.6287 53.3459 27.6287C54.1225 27.2718 54.8393 26.8554 55.5562 26.439C55.7354 26.3201 55.9146 26.1416 56.0938 26.0227C56.2133 25.9037 56.3925 25.8442 56.512 25.7253C56.9899 25.3089 57.2886 24.7736 57.3483 24.1788C57.4678 23.584 57.2886 23.0487 56.9302 22.6323Z" fill="white"/>
</svg>
