<svg width="23" height="23" viewBox="0 0 23 23" fill="none" xmlns="http://www.w3.org/2000/svg">
<path d="M1.78617 15.3539C2.3767 16.6713 3.14894 17.8523 4.1483 18.8517C5.14767 19.8511 6.32874 20.6233 7.64609 21.2138C9.00886 21.8044 10.4171 22.0769 11.9615 22.0769C13.8694 22.0769 15.641 21.6227 17.2764 20.7141C17.6852 20.487 18.0032 20.169 18.094 19.7148C18.2303 19.2605 18.1849 18.8517 18.0032 18.4429L17.9577 18.352C17.7306 17.9886 17.3672 17.7615 17.0038 17.6252C16.595 17.4889 16.1861 17.5343 15.7319 17.7615C14.5962 18.3974 13.3243 18.7154 12.007 18.7154C10.9622 18.7154 9.9628 18.5337 9.05429 18.1249C8.10035 17.716 7.28268 17.1709 6.6013 16.4895C5.91991 15.8082 5.32937 14.9905 4.96597 14.0366C4.55714 13.128 4.37544 12.1287 4.37544 11.0839C4.37544 10.0391 4.55714 9.03972 4.96597 8.08578C5.3748 7.13184 5.91991 6.31418 6.6013 5.63279C7.28269 4.9514 8.10035 4.36087 9.05429 3.99746C9.9628 3.58863 10.9622 3.40693 12.007 3.40693C13.0518 3.40693 14.0511 3.58863 15.0051 3.99746C15.959 4.4063 16.7767 4.9514 17.4581 5.63279C18.1394 6.31418 18.6846 7.13184 19.0934 8.08578C19.5022 8.9943 19.6839 10.0391 19.6839 11.0839C19.6839 11.7198 19.5931 12.3558 19.4114 12.9918C19.2297 13.6277 19.0025 14.2183 18.6391 14.8542C18.4574 15.2176 18.412 15.6719 18.5483 16.0807C18.6846 16.535 18.9571 16.8984 19.3659 17.0801C20.1836 17.5343 21.0921 17.2618 21.6372 16.4895L21.6372 16.3533C22.0461 15.5356 22.4095 14.6725 22.6366 13.8094C22.8637 12.9009 23 11.9924 23 11.0385C23 9.49398 22.7274 8.04036 22.1369 6.72301C21.5464 5.40566 20.7741 4.22459 19.7748 3.22523C18.7754 2.22586 17.5943 1.4082 16.277 0.863084C14.9596 0.27255 13.506 -4.64469e-06 11.9615 -4.77971e-06C10.4625 -4.91076e-06 9.00886 0.272549 7.64609 0.863083C6.32874 1.45362 5.14767 2.22586 4.14831 3.22522C3.14894 4.22459 2.3767 5.40566 1.78617 6.72301C1.19563 8.04035 0.923078 9.49398 0.923078 11.0385C0.923077 12.5375 1.19563 13.9911 1.78617 15.3539Z" fill="#51FF01"/>
<path d="M15.7617 10.8575L9.79003 14.3052L9.79003 7.40978L15.7617 10.8575Z" fill="black"/>
</svg>
